  0
SECTION
  2
HEADER
  9
$ACADVER
  1
AC1009
  9
$INSBASE
 10
0.0
 20
0.0
 30
0.0
  9
$EXTMIN
 10
-0.125
 20
-0.392049
 30
-0.5
  9
$EXTMAX
 10
4.707205
 20
3.385288
 30
0.0
  9
$LIMMIN
 10
0.0
 20
0.0
  9
$LIMMAX
 10
12.0
 20
9.0
  9
$ORTHOMODE
 70
     1
  9
$REGENMODE
 70
     1
  9
$FILLMODE
 70
     1
  9
$QTEXTMODE
 70
     0
  9
$MIRRTEXT
 70
     1
  9
$DRAGMODE
 70
     2
  9
$LTSCALE
 40
1.0
  9
$OSMODE
 70
     4
  9
$ATTMODE
 70
     1
  9
$TEXTSIZE
 40
0.2
  9
$TRACEWID
 40
0.05
  9
$TEXTSTYLE
  7
STANDARD
  9
$CLAYER
  8
1
  9
$CELTYPE
  6
BYLAYER
  9
$CECOLOR
 62
   256
  9
$DIMSCALE
 40
1.0
  9
$DIMASZ
 40
0.18
  9
$DIMEXO
 40
0.0625
  9
$DIMDLI
 40
0.38
  9
$DIMRND
 40
0.0
  9
$DIMDLE
 40
0.0
  9
$DIMEXE
 40
0.18
  9
$DIMTP
 40
0.0
  9
$DIMTM
 40
0.0
  9
$DIMTXT
 40
0.18
  9
$DIMCEN
 40
0.09
  9
$DIMTSZ
 40
0.0
  9
$DIMTOL
 70
     0
  9
$DIMLIM
 70
     0
  9
$DIMTIH
 70
     1
  9
$DIMTOH
 70
     1
  9
$DIMSE1
 70
     0
  9
$DIMSE2
 70
     0
  9
$DIMTAD
 70
     0
  9
$DIMZIN
 70
     0
  9
$DIMBLK
  1

  9
$DIMASO
 70
     1
  9
$DIMSHO
 70
     1
  9
$DIMPOST
  1

  9
$DIMAPOST
  1

  9
$DIMALT
 70
     0
  9
$DIMALTD
 70
     2
  9
$DIMALTF
 40
25.4
  9
$DIMLFAC
 40
1.0
  9
$DIMTOFL
 70
     0
  9
$DIMTVP
 40
0.0
  9
$DIMTIX
 70
     0
  9
$DIMSOXD
 70
     0
  9
$DIMSAH
 70
     0
  9
$DIMBLK1
  1

  9
$DIMBLK2
  1

  9
$DIMSTYLE
  2
*UNNAMED
  9
$DIMCLRD
 70
     0
  9
$DIMCLRE
 70
     0
  9
$DIMCLRT
 70
     0
  9
$DIMTFAC
 40
1.0
  9
$DIMGAP
 40
0.09
  9
$LUNITS
 70
     2
  9
$LUPREC
 70
     4
  9
$SKETCHINC
 40
0.1
  9
$FILLETRAD
 40
0.125
  9
$AUNITS
 70
     0
  9
$AUPREC
 70
     0
  9
$MENU
  1
acad
  9
$ELEVATION
 40
0.0
  9
$PELEVATION
 40
0.0
  9
$THICKNESS
 40
0.0
  9
$LIMCHECK
 70
     0
  9
$BLIPMODE
 70
     0
  9
$CHAMFERA
 40
0.0
  9
$CHAMFERB
 40
0.0
  9
$SKPOLY
 70
     0
  9
$TDCREATE
 40
2454749.000854282
  9
$TDUPDATE
 40
2454750.108214004
  9
$TDINDWG
 40
0.1160962963
  9
$TDUSRTIMER
 40
0.1160962963
  9
$USRTIMER
 70
     1
  9
$ANGBASE
 50
0.0
  9
$ANGDIR
 70
     0
  9
$PDMODE
 70
    34
  9
$PDSIZE
 40
-2.0
  9
$PLINEWID
 40
0.0
  9
$COORDS
 70
     2
  9
$SPLFRAME
 70
     0
  9
$SPLINETYPE
 70
     6
  9
$SPLINESEGS
 70
     8
  9
$ATTDIA
 70
     0
  9
$ATTREQ
 70
     1
  9
$HANDLING
 70
     0
  9
$HANDSEED
  5
0
  9
$SURFTAB1
 70
     6
  9
$SURFTAB2
 70
     6
  9
$SURFTYPE
 70
     6
  9
$SURFU
 70
     6
  9
$SURFV
 70
     6
  9
$UCSNAME
  2

  9
$UCSORG
 10
0.0
 20
0.0
 30
0.0
  9
$UCSXDIR
 10
1.0
 20
0.0
 30
0.0
  9
$UCSYDIR
 10
0.0
 20
1.0
 30
0.0
  9
$PUCSNAME
  2

  9
$PUCSORG
 10
0.0
 20
0.0
 30
0.0
  9
$PUCSXDIR
 10
1.0
 20
0.0
 30
0.0
  9
$PUCSYDIR
 10
0.0
 20
1.0
 30
0.0
  9
$USERI1
 70
     0
  9
$USERI2
 70
     0
  9
$USERI3
 70
     0
  9
$USERI4
 70
     0
  9
$USERI5
 70
     0
  9
$USERR1
 40
0.0
  9
$USERR2
 40
0.0
  9
$USERR3
 40
0.0
  9
$USERR4
 40
0.0
  9
$USERR5
 40
0.0
  9
$WORLDVIEW
 70
     1
  9
$SHADEDGE
 70
     3
  9
$SHADEDIF
 70
    70
  9
$TILEMODE
 70
     1
  9
$MAXACTVP
 70
    16
  9
$PINSBASE
 10
0.0
 20
0.0
 30
0.0
  9
$PLIMCHECK
 70
     0
  9
$PEXTMIN
 10
1.000000E+20
 20
1.000000E+20
 30
1.000000E+20
  9
$PEXTMAX
 10
-1.000000E+20
 20
-1.000000E+20
 30
-1.000000E+20
  9
$PLIMMIN
 10
0.0
 20
0.0
  9
$PLIMMAX
 10
12.0
 20
9.0
  9
$UNITMODE
 70
     0
  9
$VISRETAIN
 70
     0
  9
$PLINEGEN
 70
     0
  9
$PSLTSCALE
 70
     1
  9
$TREEDEPTH
 70
  3020
  9
$DWGCODEPAGE
  3
ascii
  0
ENDSEC
  0
SECTION
  2
TABLES
  0
TABLE
  2
VPORT
 70
     2
  0
VPORT
  2
*ACTIVE
 70
     0
 10
0.0
 20
0.0
 11
1.0
 21
1.0
 12
1.875
 22
1.382983
 13
0.0
 23
0.0
 14
0.125
 24
0.125
 15
0.25
 25
0.25
 16
0.0
 26
0.0
 36
1.0
 17
0.0
 27
0.0
 37
0.0
 40
3.769958
 41
1.326275
 42
50.0
 43
0.0
 44
0.0
 50
0.0
 51
0.0
 71
     0
 72
   100
 73
     1
 74
     1
 75
     0
 76
     0
 77
     0
 78
     0
  0
ENDTAB
  0
TABLE
  2
LTYPE
 70
     1
  0
LTYPE
  2
CONTINUOUS
 70
    64
  3
Solid line
 72
    65
 73
     0
 40
0.0
  0
ENDTAB
  0
TABLE
  2
LAYER
 70
     3
  0
LAYER
  2
0
 70
    64
 62
     7
  6
CONTINUOUS
  0
LAYER
  2
1
 70
    64
 62
     3
  6
CONTINUOUS
  0
LAYER
  2
2
 70
    64
 62
     4
  6
CONTINUOUS
  0
ENDTAB
  0
TABLE
  2
STYLE
 70
     1
  0
STYLE
  2
STANDARD
 70
     0
 40
0.0
 41
1.0
 50
0.0
 71
     0
 42
0.2
  3
txt
  4

  0
ENDTAB
  0
TABLE
  2
VIEW
 70
     0
  0
ENDTAB
  0
TABLE
  2
UCS
 70
     0
  0
ENDTAB
  0
TABLE
  2
APPID
 70
     1
  0
APPID
  2
ACAD
 70
    64
  0
ENDTAB
  0
TABLE
  2
DIMSTYLE
 70
     0
  0
ENDTAB
  0
ENDSEC
  0
SECTION
  2
BLOCKS
  0
ENDSEC
  0
SECTION
  2
ENTITIES
  0
CIRCLE
  8
0
 10
1.875
 20
1.6
 30
0.0
 40
0.4375
  0
CIRCLE
  8
0
 10
0.25
 20
0.25
 30
0.0
 40
0.1305
  0
CIRCLE
  8
0
 10
3.5
 20
0.25
 30
0.0
 40
0.1305
  0
CIRCLE
  8
0
 10
0.25
 20
2.0
 30
0.0
 40
0.1305
  0
CIRCLE
  8
0
 10
3.5
 20
2.0
 30
0.0
 40
0.1305
  0
CIRCLE
  8
0
 10
2.485
 20
2.21
 30
0.0
 40
0.065
  0
CIRCLE
  8
0
 10
1.265
 20
2.21
 30
0.0
 40
0.065
  0
CIRCLE
  8
0
 10
1.265
 20
0.99
 30
0.0
 40
0.065
  0
CIRCLE
  8
0
 10
2.485
 20
0.99
 30
0.0
 40
0.065
  0
LINE
  8
0
 10
0.5
 20
0.0
 30
0.0
 11
0.5
 21
2.25
 31
0.0
  0
LINE
  8
0
 10
3.25
 20
2.25
 30
0.0
 11
3.25
 21
0.0
 31
0.0
  0
CIRCLE
  8
0
 10
2.732
 20
1.6
 30
0.0
 40
0.25
  0
CIRCLE
  8
0
 10
0.982
 20
1.6
 30
0.0
 40
0.25
  0
CIRCLE
  8
1
 10
3.5
 20
0.25
 30
-0.25
 40
0.0055
  0
CIRCLE
  8
1
 10
3.5
 20
2.0
 30
-0.25
 40
0.0055
  0
CIRCLE
  8
1
 10
0.25
 20
2.0
 30
-0.25
 40
0.0055
  0
CIRCLE
  8
1
 10
0.25
 20
0.25
 30
-0.25
 40
0.0055
  0
CIRCLE
  8
1
 10
1.875
 20
1.6
 30
-0.25
 40
0.3125
  0
CIRCLE
  8
1
 10
1.875
 20
1.6
 30
-0.25
 40
0.1875
  0
CIRCLE
  8
1
 10
1.875
 20
1.6
 30
-0.25
 40
0.0625
  0
CIRCLE
  8
1
 10
0.982
 20
1.6
 30
-0.25
 40
0.125
  0
CIRCLE
  8
1
 10
2.732
 20
1.6
 30
-0.25
 40
0.125
  0
CIRCLE
  8
1
 10
2.732
 20
1.6
 30
-0.335
 40
0.125
  0
CIRCLE
  8
1
 10
0.982
 20
1.6
 30
-0.335
 40
0.125
  0
CIRCLE
  8
1
 10
1.875
 20
1.6
 30
-0.5
 40
0.0625
  0
CIRCLE
  8
1
 10
1.875
 20
1.6
 30
-0.5
 40
0.1875
  0
CIRCLE
  8
1
 10
1.875
 20
1.6
 30
-0.5
 40
0.3125
  0
CIRCLE
  8
1
 10
0.25
 20
0.25
 30
-0.5
 40
0.0055
  0
CIRCLE
  8
1
 10
0.25
 20
2.0
 30
-0.5
 40
0.0055
  0
CIRCLE
  8
1
 10
3.5
 20
2.0
 30
-0.5
 40
0.0055
  0
CIRCLE
  8
1
 10
3.5
 20
0.25
 30
-0.5
 40
0.0055
  0
POLYLINE
  8
0
 66
     1
 10
0.0
 20
0.0
 30
0.0
 70
     1
  0
VERTEX
  8
0
 10
2.775
 20
2.375
 30
0.0
  0
VERTEX
  8
0
 10
2.775
 20
2.25
 30
0.0
  0
VERTEX
  8
0
 10
3.75
 20
2.25
 30
0.0
  0
VERTEX
  8
0
 10
3.75
 20
0.0
 30
0.0
  0
VERTEX
  8
0
 10
0.0
 20
0.0
 30
0.0
  0
VERTEX
  8
0
 10
0.0
 20
2.25
 30
0.0
  0
VERTEX
  8
0
 10
0.975
 20
2.25
 30
0.0
  0
VERTEX
  8
0
 10
0.975
 20
2.375
 30
0.0
 42
-0.414214
  0
VERTEX
  8
0
 10
1.1
 20
2.5
 30
0.0
  0
VERTEX
  8
0
 10
2.65
 20
2.5
 30
0.0
 42
-0.414214
  0
SEQEND
  8
0
  0
POLYLINE
  8
0
 66
     1
 10
0.0
 20
0.0
 30
-0.25
 70
     1
  0
VERTEX
  8
0
 10
2.9
 20
2.375
 30
-0.25
  0
VERTEX
  8
0
 10
3.875
 20
2.375
 30
-0.25
  0
VERTEX
  8
0
 10
3.875
 20
-0.125
 30
-0.25
  0
VERTEX
  8
0
 10
-0.125
 20
-0.125
 30
-0.25
  0
VERTEX
  8
0
 10
-0.125
 20
2.375
 30
-0.25
  0
VERTEX
  8
0
 10
0.85
 20
2.375
 30
-0.25
 42
-0.414214
  0
VERTEX
  8
0
 10
1.1
 20
2.625
 30
-0.25
  0
VERTEX
  8
0
 10
2.65
 20
2.625
 30
-0.25
 42
-0.414214
  0
SEQEND
  8
0
  0
POLYLINE
  8
0
 66
     1
 10
0.0
 20
0.0
 30
-0.5
 70
     1
  0
VERTEX
  8
0
 10
2.9
 20
2.375
 30
-0.5
  0
VERTEX
  8
0
 10
3.875
 20
2.375
 30
-0.5
  0
VERTEX
  8
0
 10
3.875
 20
-0.125
 30
-0.5
  0
VERTEX
  8
0
 10
-0.125
 20
-0.125
 30
-0.5
  0
VERTEX
  8
0
 10
-0.125
 20
2.375
 30
-0.5
  0
VERTEX
  8
0
 10
0.85
 20
2.375
 30
-0.5
 42
-0.414214
  0
VERTEX
  8
0
 10
1.1
 20
2.625
 30
-0.5
  0
VERTEX
  8
0
 10
2.65
 20
2.625
 30
-0.5
 42
-0.414214
  0
SEQEND
  8
0
  0
LINE
  8
1
 10
0.125
 20
-0.125
 30
-0.09
 11
0.125
 21
2.375
 31
-0.09
  0
LINE
  8
1
 10
0.375
 20
-0.125
 30
-0.09
 11
0.375
 21
2.375
 31
-0.09
  0
LINE
  8
1
 10
3.625
 20
-0.125
 30
-0.09
 11
3.625
 21
2.375
 31
-0.09
  0
LINE
  8
1
 10
3.375
 20
-0.125
 30
-0.09
 11
3.375
 21
2.375
 31
-0.09
  0
POINT
  8
2
 10
1.265
 20
2.21
 30
-0.5
  0
POINT
  8
2
 10
2.485
 20
2.21
 30
-0.5
  0
POINT
  8
2
 10
2.485
 20
0.99
 30
-0.5
  0
POINT
  8
2
 10
1.265
 20
0.99
 30
-0.5
  0
TEXT
  8
2
 10
2.450087
 20
0.341284
 30
0.0
 40
0.2
  1
tool:.120 drill
  0
TEXT
  8
2
 10
2.450087
 20
0.007951
 30
0.0
 40
0.2
  1
vfeed:4
  0
TEXT
  8
2
 10
2.450087
 20
-0.325382
 30
0.0
 40
0.2
  1
peck:.1
  0
TEXT
  8
1
 10
2.940538
 20
3.185288
 30
0.0
 40
0.2
  1
tool:.25 em
  0
TEXT
  8
1
 10
2.940538
 20
2.851955
 30
0.0
 40
0.2
  1
vfeed:9
  0
TEXT
  8
1
 10
2.940538
 20
2.518621
 30
0.0
 40
0.2
  1
hfeed:18
  0
POINT
  8
1
 10
2.485
 20
0.99
 30
-0.135
  0
POINT
  8
1
 10
2.485
 20
2.21
 30
-0.135
  0
POINT
  8
1
 10
1.265
 20
2.21
 30
-0.135
  0
POINT
  8
1
 10
1.265
 20
0.99
 30
-0.135
  0
ENDSEC
  0
EOF
