G04 #@! TF.GenerationSoftware,KiCad,Pcbnew,5.0.1+dfsg1-3~bpo9+1*
G04 #@! TF.CreationDate,2018-11-24T21:55:30-07:00*
G04 #@! TF.ProjectId,breakout-board,627265616B6F75742D626F6172642E6B,rev?*
G04 #@! TF.SameCoordinates,Original*
G04 #@! TF.FileFunction,Copper,L2,Bot,Signal*
G04 #@! TF.FilePolarity,Positive*
%FSLAX46Y46*%
G04 Gerber Fmt 4.6, Leading zero omitted, Abs format (unit mm)*
G04 Created by KiCad (PCBNEW 5.0.1+dfsg1-3~bpo9+1) date Sat 24 Nov 2018 09:55:30 PM MST*
%MOMM*%
%LPD*%
G01*
G04 APERTURE LIST*
G04 #@! TA.AperFunction,NonConductor*
%ADD10C,0.300000*%
G04 #@! TD*
G04 #@! TA.AperFunction,ComponentPad*
%ADD11C,2.200000*%
G04 #@! TD*
G04 #@! TA.AperFunction,ComponentPad*
%ADD12R,2.200000X2.200000*%
G04 #@! TD*
G04 #@! TA.AperFunction,ComponentPad*
%ADD13R,1.727200X1.727200*%
G04 #@! TD*
G04 #@! TA.AperFunction,ComponentPad*
%ADD14O,1.727200X1.727200*%
G04 #@! TD*
G04 #@! TA.AperFunction,ComponentPad*
%ADD15C,1.600000*%
G04 #@! TD*
G04 #@! TA.AperFunction,ComponentPad*
%ADD16O,1.600000X1.600000*%
G04 #@! TD*
G04 #@! TA.AperFunction,ComponentPad*
%ADD17R,1.800000X1.800000*%
G04 #@! TD*
G04 #@! TA.AperFunction,ComponentPad*
%ADD18C,1.800000*%
G04 #@! TD*
G04 #@! TA.AperFunction,Conductor*
%ADD19C,0.250000*%
G04 #@! TD*
G04 APERTURE END LIST*
D10*
X150710000Y-38548571D02*
X151567142Y-38548571D01*
X151138571Y-40048571D02*
X151138571Y-38548571D01*
X152281428Y-40048571D02*
X152138571Y-39977142D01*
X152067142Y-39905714D01*
X151995714Y-39762857D01*
X151995714Y-39334285D01*
X152067142Y-39191428D01*
X152138571Y-39120000D01*
X152281428Y-39048571D01*
X152495714Y-39048571D01*
X152638571Y-39120000D01*
X152710000Y-39191428D01*
X152781428Y-39334285D01*
X152781428Y-39762857D01*
X152710000Y-39905714D01*
X152638571Y-39977142D01*
X152495714Y-40048571D01*
X152281428Y-40048571D01*
X154424285Y-38548571D02*
X155424285Y-38548571D01*
X154424285Y-40048571D01*
X155424285Y-40048571D01*
X156567142Y-39977142D02*
X156424285Y-40048571D01*
X156138571Y-40048571D01*
X155995714Y-39977142D01*
X155924285Y-39834285D01*
X155924285Y-39262857D01*
X155995714Y-39120000D01*
X156138571Y-39048571D01*
X156424285Y-39048571D01*
X156567142Y-39120000D01*
X156638571Y-39262857D01*
X156638571Y-39405714D01*
X155924285Y-39548571D01*
X157281428Y-39048571D02*
X157281428Y-40048571D01*
X157281428Y-39191428D02*
X157352857Y-39120000D01*
X157495714Y-39048571D01*
X157710000Y-39048571D01*
X157852857Y-39120000D01*
X157924285Y-39262857D01*
X157924285Y-40048571D01*
X158638571Y-40048571D02*
X158638571Y-38548571D01*
X158638571Y-39120000D02*
X158781428Y-39048571D01*
X159067142Y-39048571D01*
X159210000Y-39120000D01*
X159281428Y-39191428D01*
X159352857Y-39334285D01*
X159352857Y-39762857D01*
X159281428Y-39905714D01*
X159210000Y-39977142D01*
X159067142Y-40048571D01*
X158781428Y-40048571D01*
X158638571Y-39977142D01*
X160210000Y-40048571D02*
X160067142Y-39977142D01*
X159995714Y-39905714D01*
X159924285Y-39762857D01*
X159924285Y-39334285D01*
X159995714Y-39191428D01*
X160067142Y-39120000D01*
X160210000Y-39048571D01*
X160424285Y-39048571D01*
X160567142Y-39120000D01*
X160638571Y-39191428D01*
X160710000Y-39334285D01*
X160710000Y-39762857D01*
X160638571Y-39905714D01*
X160567142Y-39977142D01*
X160424285Y-40048571D01*
X160210000Y-40048571D01*
X161138571Y-39048571D02*
X161710000Y-39048571D01*
X161352857Y-38548571D02*
X161352857Y-39834285D01*
X161424285Y-39977142D01*
X161567142Y-40048571D01*
X161710000Y-40048571D01*
X104760000Y-38548571D02*
X105617142Y-38548571D01*
X105188571Y-40048571D02*
X105188571Y-38548571D01*
X106331428Y-40048571D02*
X106188571Y-39977142D01*
X106117142Y-39905714D01*
X106045714Y-39762857D01*
X106045714Y-39334285D01*
X106117142Y-39191428D01*
X106188571Y-39120000D01*
X106331428Y-39048571D01*
X106545714Y-39048571D01*
X106688571Y-39120000D01*
X106760000Y-39191428D01*
X106831428Y-39334285D01*
X106831428Y-39762857D01*
X106760000Y-39905714D01*
X106688571Y-39977142D01*
X106545714Y-40048571D01*
X106331428Y-40048571D01*
X109474285Y-39905714D02*
X109402857Y-39977142D01*
X109188571Y-40048571D01*
X109045714Y-40048571D01*
X108831428Y-39977142D01*
X108688571Y-39834285D01*
X108617142Y-39691428D01*
X108545714Y-39405714D01*
X108545714Y-39191428D01*
X108617142Y-38905714D01*
X108688571Y-38762857D01*
X108831428Y-38620000D01*
X109045714Y-38548571D01*
X109188571Y-38548571D01*
X109402857Y-38620000D01*
X109474285Y-38691428D01*
X110331428Y-40048571D02*
X110188571Y-39977142D01*
X110117142Y-39905714D01*
X110045714Y-39762857D01*
X110045714Y-39334285D01*
X110117142Y-39191428D01*
X110188571Y-39120000D01*
X110331428Y-39048571D01*
X110545714Y-39048571D01*
X110688571Y-39120000D01*
X110760000Y-39191428D01*
X110831428Y-39334285D01*
X110831428Y-39762857D01*
X110760000Y-39905714D01*
X110688571Y-39977142D01*
X110545714Y-40048571D01*
X110331428Y-40048571D01*
X111474285Y-40048571D02*
X111474285Y-39048571D01*
X111474285Y-39191428D02*
X111545714Y-39120000D01*
X111688571Y-39048571D01*
X111902857Y-39048571D01*
X112045714Y-39120000D01*
X112117142Y-39262857D01*
X112117142Y-40048571D01*
X112117142Y-39262857D02*
X112188571Y-39120000D01*
X112331428Y-39048571D01*
X112545714Y-39048571D01*
X112688571Y-39120000D01*
X112760000Y-39262857D01*
X112760000Y-40048571D01*
X113474285Y-39048571D02*
X113474285Y-40548571D01*
X113474285Y-39120000D02*
X113617142Y-39048571D01*
X113902857Y-39048571D01*
X114045714Y-39120000D01*
X114117142Y-39191428D01*
X114188571Y-39334285D01*
X114188571Y-39762857D01*
X114117142Y-39905714D01*
X114045714Y-39977142D01*
X113902857Y-40048571D01*
X113617142Y-40048571D01*
X113474285Y-39977142D01*
X115474285Y-39048571D02*
X115474285Y-40048571D01*
X114831428Y-39048571D02*
X114831428Y-39834285D01*
X114902857Y-39977142D01*
X115045714Y-40048571D01*
X115260000Y-40048571D01*
X115402857Y-39977142D01*
X115474285Y-39905714D01*
X115974285Y-39048571D02*
X116545714Y-39048571D01*
X116188571Y-38548571D02*
X116188571Y-39834285D01*
X116260000Y-39977142D01*
X116402857Y-40048571D01*
X116545714Y-40048571D01*
X117617142Y-39977142D02*
X117474285Y-40048571D01*
X117188571Y-40048571D01*
X117045714Y-39977142D01*
X116974285Y-39834285D01*
X116974285Y-39262857D01*
X117045714Y-39120000D01*
X117188571Y-39048571D01*
X117474285Y-39048571D01*
X117617142Y-39120000D01*
X117688571Y-39262857D01*
X117688571Y-39405714D01*
X116974285Y-39548571D01*
X118331428Y-40048571D02*
X118331428Y-39048571D01*
X118331428Y-39334285D02*
X118402857Y-39191428D01*
X118474285Y-39120000D01*
X118617142Y-39048571D01*
X118759999Y-39048571D01*
X142367142Y-131330000D02*
X142224285Y-131258571D01*
X142010000Y-131258571D01*
X141795714Y-131330000D01*
X141652857Y-131472857D01*
X141581428Y-131615714D01*
X141510000Y-131901428D01*
X141510000Y-132115714D01*
X141581428Y-132401428D01*
X141652857Y-132544285D01*
X141795714Y-132687142D01*
X142010000Y-132758571D01*
X142152857Y-132758571D01*
X142367142Y-132687142D01*
X142438571Y-132615714D01*
X142438571Y-132115714D01*
X142152857Y-132115714D01*
X143081428Y-132758571D02*
X143081428Y-131258571D01*
X143938571Y-132758571D01*
X143938571Y-131258571D01*
X144652857Y-132758571D02*
X144652857Y-131258571D01*
X145010000Y-131258571D01*
X145224285Y-131330000D01*
X145367142Y-131472857D01*
X145438571Y-131615714D01*
X145510000Y-131901428D01*
X145510000Y-132115714D01*
X145438571Y-132401428D01*
X145367142Y-132544285D01*
X145224285Y-132687142D01*
X145010000Y-132758571D01*
X144652857Y-132758571D01*
X139684285Y-129647142D02*
X140827142Y-129647142D01*
X140255714Y-130218571D02*
X140255714Y-129075714D01*
X142255714Y-128718571D02*
X141541428Y-128718571D01*
X141470000Y-129432857D01*
X141541428Y-129361428D01*
X141684285Y-129290000D01*
X142041428Y-129290000D01*
X142184285Y-129361428D01*
X142255714Y-129432857D01*
X142327142Y-129575714D01*
X142327142Y-129932857D01*
X142255714Y-130075714D01*
X142184285Y-130147142D01*
X142041428Y-130218571D01*
X141684285Y-130218571D01*
X141541428Y-130147142D01*
X141470000Y-130075714D01*
X138001428Y-131758571D02*
X138001428Y-132758571D01*
X137644285Y-131187142D02*
X137287142Y-132258571D01*
X138215714Y-132258571D01*
X139501428Y-131258571D02*
X138787142Y-131258571D01*
X138715714Y-131972857D01*
X138787142Y-131901428D01*
X138930000Y-131830000D01*
X139287142Y-131830000D01*
X139430000Y-131901428D01*
X139501428Y-131972857D01*
X139572857Y-132115714D01*
X139572857Y-132472857D01*
X139501428Y-132615714D01*
X139430000Y-132687142D01*
X139287142Y-132758571D01*
X138930000Y-132758571D01*
X138787142Y-132687142D01*
X138715714Y-132615714D01*
X135461428Y-129218571D02*
X135461428Y-130218571D01*
X135104285Y-128647142D02*
X134747142Y-129718571D01*
X135675714Y-129718571D01*
X137032857Y-130218571D02*
X136175714Y-130218571D01*
X136604285Y-130218571D02*
X136604285Y-128718571D01*
X136461428Y-128932857D01*
X136318571Y-129075714D01*
X136175714Y-129147142D01*
X132135714Y-131258571D02*
X133064285Y-131258571D01*
X132564285Y-131830000D01*
X132778571Y-131830000D01*
X132921428Y-131901428D01*
X132992857Y-131972857D01*
X133064285Y-132115714D01*
X133064285Y-132472857D01*
X132992857Y-132615714D01*
X132921428Y-132687142D01*
X132778571Y-132758571D01*
X132350000Y-132758571D01*
X132207142Y-132687142D01*
X132135714Y-132615714D01*
X133564285Y-131258571D02*
X134564285Y-131258571D01*
X133921428Y-132758571D01*
X129595714Y-128718571D02*
X130524285Y-128718571D01*
X130024285Y-129290000D01*
X130238571Y-129290000D01*
X130381428Y-129361428D01*
X130452857Y-129432857D01*
X130524285Y-129575714D01*
X130524285Y-129932857D01*
X130452857Y-130075714D01*
X130381428Y-130147142D01*
X130238571Y-130218571D01*
X129810000Y-130218571D01*
X129667142Y-130147142D01*
X129595714Y-130075714D01*
X131024285Y-128718571D02*
X131952857Y-128718571D01*
X131452857Y-129290000D01*
X131667142Y-129290000D01*
X131810000Y-129361428D01*
X131881428Y-129432857D01*
X131952857Y-129575714D01*
X131952857Y-129932857D01*
X131881428Y-130075714D01*
X131810000Y-130147142D01*
X131667142Y-130218571D01*
X131238571Y-130218571D01*
X131095714Y-130147142D01*
X131024285Y-130075714D01*
X127127142Y-131401428D02*
X127198571Y-131330000D01*
X127341428Y-131258571D01*
X127698571Y-131258571D01*
X127841428Y-131330000D01*
X127912857Y-131401428D01*
X127984285Y-131544285D01*
X127984285Y-131687142D01*
X127912857Y-131901428D01*
X127055714Y-132758571D01*
X127984285Y-132758571D01*
X128484285Y-131258571D02*
X129484285Y-131258571D01*
X128841428Y-132758571D01*
X124587142Y-128861428D02*
X124658571Y-128790000D01*
X124801428Y-128718571D01*
X125158571Y-128718571D01*
X125301428Y-128790000D01*
X125372857Y-128861428D01*
X125444285Y-129004285D01*
X125444285Y-129147142D01*
X125372857Y-129361428D01*
X124515714Y-130218571D01*
X125444285Y-130218571D01*
X126801428Y-128718571D02*
X126087142Y-128718571D01*
X126015714Y-129432857D01*
X126087142Y-129361428D01*
X126230000Y-129290000D01*
X126587142Y-129290000D01*
X126730000Y-129361428D01*
X126801428Y-129432857D01*
X126872857Y-129575714D01*
X126872857Y-129932857D01*
X126801428Y-130075714D01*
X126730000Y-130147142D01*
X126587142Y-130218571D01*
X126230000Y-130218571D01*
X126087142Y-130147142D01*
X126015714Y-130075714D01*
D11*
G04 #@! TO.P,J1,8*
G04 #@! TO.N,Net-(D1-Pad1)*
X143510000Y-124460000D03*
G04 #@! TO.P,J1,7*
G04 #@! TO.N,Net-(J1-Pad7)*
X140970000Y-124460000D03*
G04 #@! TO.P,J1,6*
G04 #@! TO.N,Net-(J1-Pad6)*
X138430000Y-124460000D03*
G04 #@! TO.P,J1,5*
G04 #@! TO.N,Net-(J1-Pad5)*
X135890000Y-124460000D03*
G04 #@! TO.P,J1,4*
G04 #@! TO.N,Net-(J1-Pad4)*
X133350000Y-124460000D03*
G04 #@! TO.P,J1,3*
G04 #@! TO.N,Net-(J1-Pad3)*
X130810000Y-124460000D03*
G04 #@! TO.P,J1,2*
G04 #@! TO.N,Net-(J1-Pad2)*
X128270000Y-124460000D03*
D12*
G04 #@! TO.P,J1,1*
G04 #@! TO.N,Net-(J1-Pad1)*
X125730000Y-124460000D03*
G04 #@! TD*
D13*
G04 #@! TO.P,P0,1*
G04 #@! TO.N,Net-(P0-Pad1)*
X110490000Y-43180000D03*
D14*
G04 #@! TO.P,P0,2*
G04 #@! TO.N,Net-(P0-Pad2)*
X113030000Y-43180000D03*
G04 #@! TO.P,P0,3*
G04 #@! TO.N,Net-(P0-Pad3)*
X110490000Y-45720000D03*
G04 #@! TO.P,P0,4*
G04 #@! TO.N,Net-(P0-Pad4)*
X113030000Y-45720000D03*
G04 #@! TO.P,P0,5*
G04 #@! TO.N,Net-(P0-Pad5)*
X110490000Y-48260000D03*
G04 #@! TO.P,P0,6*
G04 #@! TO.N,Net-(P0-Pad6)*
X113030000Y-48260000D03*
G04 #@! TO.P,P0,7*
G04 #@! TO.N,Net-(P0-Pad7)*
X110490000Y-50800000D03*
G04 #@! TO.P,P0,8*
G04 #@! TO.N,Net-(P0-Pad8)*
X113030000Y-50800000D03*
G04 #@! TO.P,P0,9*
G04 #@! TO.N,Net-(P0-Pad9)*
X110490000Y-53340000D03*
G04 #@! TO.P,P0,10*
G04 #@! TO.N,Net-(P0-Pad10)*
X113030000Y-53340000D03*
G04 #@! TO.P,P0,11*
G04 #@! TO.N,Net-(P0-Pad11)*
X110490000Y-55880000D03*
G04 #@! TO.P,P0,12*
G04 #@! TO.N,Net-(P0-Pad12)*
X113030000Y-55880000D03*
G04 #@! TO.P,P0,13*
G04 #@! TO.N,Net-(P0-Pad13)*
X110490000Y-58420000D03*
G04 #@! TO.P,P0,14*
G04 #@! TO.N,Net-(P0-Pad14)*
X113030000Y-58420000D03*
G04 #@! TO.P,P0,15*
G04 #@! TO.N,Net-(P0-Pad15)*
X110490000Y-60960000D03*
G04 #@! TO.P,P0,16*
G04 #@! TO.N,Net-(P0-Pad16)*
X113030000Y-60960000D03*
G04 #@! TO.P,P0,17*
G04 #@! TO.N,Net-(P0-Pad17)*
X110490000Y-63500000D03*
G04 #@! TO.P,P0,18*
G04 #@! TO.N,Net-(P0-Pad18)*
X113030000Y-63500000D03*
G04 #@! TO.P,P0,19*
G04 #@! TO.N,Net-(P0-Pad19)*
X110490000Y-66040000D03*
G04 #@! TO.P,P0,20*
G04 #@! TO.N,Net-(P0-Pad20)*
X113030000Y-66040000D03*
G04 #@! TO.P,P0,21*
G04 #@! TO.N,Net-(P0-Pad21)*
X110490000Y-68580000D03*
G04 #@! TO.P,P0,22*
G04 #@! TO.N,Net-(P0-Pad22)*
X113030000Y-68580000D03*
G04 #@! TO.P,P0,23*
G04 #@! TO.N,Net-(P0-Pad23)*
X110490000Y-71120000D03*
G04 #@! TO.P,P0,24*
G04 #@! TO.N,Net-(P0-Pad24)*
X113030000Y-71120000D03*
G04 #@! TO.P,P0,25*
G04 #@! TO.N,Net-(J1-Pad1)*
X110490000Y-73660000D03*
G04 #@! TO.P,P0,26*
G04 #@! TO.N,Net-(P0-Pad26)*
X113030000Y-73660000D03*
G04 #@! TO.P,P0,27*
G04 #@! TO.N,Net-(J1-Pad2)*
X110490000Y-76200000D03*
G04 #@! TO.P,P0,28*
G04 #@! TO.N,Net-(P0-Pad28)*
X113030000Y-76200000D03*
G04 #@! TO.P,P0,29*
G04 #@! TO.N,Net-(P0-Pad29)*
X110490000Y-78740000D03*
G04 #@! TO.P,P0,30*
G04 #@! TO.N,Net-(P0-Pad30)*
X113030000Y-78740000D03*
G04 #@! TO.P,P0,31*
G04 #@! TO.N,Net-(P0-Pad31)*
X110490000Y-81280000D03*
G04 #@! TO.P,P0,32*
G04 #@! TO.N,Net-(P0-Pad32)*
X113030000Y-81280000D03*
G04 #@! TO.P,P0,33*
G04 #@! TO.N,Net-(J1-Pad3)*
X110490000Y-83820000D03*
G04 #@! TO.P,P0,34*
G04 #@! TO.N,Net-(P0-Pad34)*
X113030000Y-83820000D03*
G04 #@! TO.P,P0,35*
G04 #@! TO.N,Net-(P0-Pad35)*
X110490000Y-86360000D03*
G04 #@! TO.P,P0,36*
G04 #@! TO.N,Net-(P0-Pad36)*
X113030000Y-86360000D03*
G04 #@! TO.P,P0,37*
G04 #@! TO.N,Net-(J1-Pad4)*
X110490000Y-88900000D03*
G04 #@! TO.P,P0,38*
G04 #@! TO.N,Net-(P0-Pad38)*
X113030000Y-88900000D03*
G04 #@! TO.P,P0,39*
G04 #@! TO.N,Net-(P0-Pad39)*
X110490000Y-91440000D03*
G04 #@! TO.P,P0,40*
G04 #@! TO.N,Net-(P0-Pad40)*
X113030000Y-91440000D03*
G04 #@! TO.P,P0,41*
G04 #@! TO.N,Net-(J1-Pad5)*
X110490000Y-93980000D03*
G04 #@! TO.P,P0,42*
G04 #@! TO.N,Net-(P0-Pad42)*
X113030000Y-93980000D03*
G04 #@! TO.P,P0,43*
G04 #@! TO.N,Net-(P0-Pad43)*
X110490000Y-96520000D03*
G04 #@! TO.P,P0,44*
G04 #@! TO.N,Net-(P0-Pad44)*
X113030000Y-96520000D03*
G04 #@! TO.P,P0,45*
G04 #@! TO.N,Net-(J1-Pad6)*
X110490000Y-99060000D03*
G04 #@! TO.P,P0,46*
G04 #@! TO.N,Net-(P0-Pad46)*
X113030000Y-99060000D03*
G04 #@! TO.P,P0,47*
G04 #@! TO.N,Net-(P0-Pad47)*
X110490000Y-101600000D03*
G04 #@! TO.P,P0,48*
G04 #@! TO.N,Net-(P0-Pad48)*
X113030000Y-101600000D03*
G04 #@! TO.P,P0,49*
G04 #@! TO.N,Net-(J1-Pad7)*
X110490000Y-104140000D03*
G04 #@! TO.P,P0,50*
G04 #@! TO.N,Net-(D1-Pad1)*
X113030000Y-104140000D03*
G04 #@! TD*
D13*
G04 #@! TO.P,P1,1*
G04 #@! TO.N,Net-(P0-Pad1)*
X156210000Y-43180000D03*
D14*
G04 #@! TO.P,P1,2*
G04 #@! TO.N,Net-(P0-Pad2)*
X158750000Y-43180000D03*
G04 #@! TO.P,P1,3*
G04 #@! TO.N,Net-(P0-Pad3)*
X156210000Y-45720000D03*
G04 #@! TO.P,P1,4*
G04 #@! TO.N,Net-(P0-Pad4)*
X158750000Y-45720000D03*
G04 #@! TO.P,P1,5*
G04 #@! TO.N,Net-(P0-Pad5)*
X156210000Y-48260000D03*
G04 #@! TO.P,P1,6*
G04 #@! TO.N,Net-(P0-Pad6)*
X158750000Y-48260000D03*
G04 #@! TO.P,P1,7*
G04 #@! TO.N,Net-(P0-Pad7)*
X156210000Y-50800000D03*
G04 #@! TO.P,P1,8*
G04 #@! TO.N,Net-(P0-Pad8)*
X158750000Y-50800000D03*
G04 #@! TO.P,P1,9*
G04 #@! TO.N,Net-(P0-Pad9)*
X156210000Y-53340000D03*
G04 #@! TO.P,P1,10*
G04 #@! TO.N,Net-(P0-Pad10)*
X158750000Y-53340000D03*
G04 #@! TO.P,P1,11*
G04 #@! TO.N,Net-(P0-Pad11)*
X156210000Y-55880000D03*
G04 #@! TO.P,P1,12*
G04 #@! TO.N,Net-(P0-Pad12)*
X158750000Y-55880000D03*
G04 #@! TO.P,P1,13*
G04 #@! TO.N,Net-(P0-Pad13)*
X156210000Y-58420000D03*
G04 #@! TO.P,P1,14*
G04 #@! TO.N,Net-(P0-Pad14)*
X158750000Y-58420000D03*
G04 #@! TO.P,P1,15*
G04 #@! TO.N,Net-(P0-Pad15)*
X156210000Y-60960000D03*
G04 #@! TO.P,P1,16*
G04 #@! TO.N,Net-(P0-Pad16)*
X158750000Y-60960000D03*
G04 #@! TO.P,P1,17*
G04 #@! TO.N,Net-(P0-Pad17)*
X156210000Y-63500000D03*
G04 #@! TO.P,P1,18*
G04 #@! TO.N,Net-(P0-Pad18)*
X158750000Y-63500000D03*
G04 #@! TO.P,P1,19*
G04 #@! TO.N,Net-(P0-Pad19)*
X156210000Y-66040000D03*
G04 #@! TO.P,P1,20*
G04 #@! TO.N,Net-(P0-Pad20)*
X158750000Y-66040000D03*
G04 #@! TO.P,P1,21*
G04 #@! TO.N,Net-(P0-Pad21)*
X156210000Y-68580000D03*
G04 #@! TO.P,P1,22*
G04 #@! TO.N,Net-(P0-Pad22)*
X158750000Y-68580000D03*
G04 #@! TO.P,P1,23*
G04 #@! TO.N,Net-(P0-Pad23)*
X156210000Y-71120000D03*
G04 #@! TO.P,P1,24*
G04 #@! TO.N,Net-(P0-Pad24)*
X158750000Y-71120000D03*
G04 #@! TO.P,P1,25*
G04 #@! TO.N,Net-(P1-Pad25)*
X156210000Y-73660000D03*
G04 #@! TO.P,P1,26*
G04 #@! TO.N,Net-(P0-Pad26)*
X158750000Y-73660000D03*
G04 #@! TO.P,P1,27*
G04 #@! TO.N,Net-(P1-Pad27)*
X156210000Y-76200000D03*
G04 #@! TO.P,P1,28*
G04 #@! TO.N,Net-(P0-Pad28)*
X158750000Y-76200000D03*
G04 #@! TO.P,P1,29*
G04 #@! TO.N,Net-(P0-Pad29)*
X156210000Y-78740000D03*
G04 #@! TO.P,P1,30*
G04 #@! TO.N,Net-(P0-Pad30)*
X158750000Y-78740000D03*
G04 #@! TO.P,P1,31*
G04 #@! TO.N,Net-(P0-Pad31)*
X156210000Y-81280000D03*
G04 #@! TO.P,P1,32*
G04 #@! TO.N,Net-(P0-Pad32)*
X158750000Y-81280000D03*
G04 #@! TO.P,P1,33*
G04 #@! TO.N,Net-(P1-Pad33)*
X156210000Y-83820000D03*
G04 #@! TO.P,P1,34*
G04 #@! TO.N,Net-(P0-Pad34)*
X158750000Y-83820000D03*
G04 #@! TO.P,P1,35*
G04 #@! TO.N,Net-(P0-Pad35)*
X156210000Y-86360000D03*
G04 #@! TO.P,P1,36*
G04 #@! TO.N,Net-(P0-Pad36)*
X158750000Y-86360000D03*
G04 #@! TO.P,P1,37*
G04 #@! TO.N,Net-(P1-Pad37)*
X156210000Y-88900000D03*
G04 #@! TO.P,P1,38*
G04 #@! TO.N,Net-(P0-Pad38)*
X158750000Y-88900000D03*
G04 #@! TO.P,P1,39*
G04 #@! TO.N,Net-(P0-Pad39)*
X156210000Y-91440000D03*
G04 #@! TO.P,P1,40*
G04 #@! TO.N,Net-(P0-Pad40)*
X158750000Y-91440000D03*
G04 #@! TO.P,P1,41*
G04 #@! TO.N,Net-(P1-Pad41)*
X156210000Y-93980000D03*
G04 #@! TO.P,P1,42*
G04 #@! TO.N,Net-(P0-Pad42)*
X158750000Y-93980000D03*
G04 #@! TO.P,P1,43*
G04 #@! TO.N,Net-(P0-Pad43)*
X156210000Y-96520000D03*
G04 #@! TO.P,P1,44*
G04 #@! TO.N,Net-(P0-Pad44)*
X158750000Y-96520000D03*
G04 #@! TO.P,P1,45*
G04 #@! TO.N,Net-(P1-Pad45)*
X156210000Y-99060000D03*
G04 #@! TO.P,P1,46*
G04 #@! TO.N,Net-(P0-Pad46)*
X158750000Y-99060000D03*
G04 #@! TO.P,P1,47*
G04 #@! TO.N,Net-(P0-Pad47)*
X156210000Y-101600000D03*
G04 #@! TO.P,P1,48*
G04 #@! TO.N,Net-(P0-Pad48)*
X158750000Y-101600000D03*
G04 #@! TO.P,P1,49*
G04 #@! TO.N,Net-(J1-Pad7)*
X156210000Y-104140000D03*
G04 #@! TO.P,P1,50*
G04 #@! TO.N,Net-(D1-Pad1)*
X158750000Y-104140000D03*
G04 #@! TD*
D15*
G04 #@! TO.P,R1,1*
G04 #@! TO.N,Net-(D1-Pad2)*
X137160000Y-113030000D03*
D16*
G04 #@! TO.P,R1,2*
G04 #@! TO.N,Net-(J1-Pad7)*
X121920000Y-113030000D03*
G04 #@! TD*
D17*
G04 #@! TO.P,D1,1*
G04 #@! TO.N,Net-(D1-Pad1)*
X148590000Y-113030000D03*
D18*
G04 #@! TO.P,D1,2*
G04 #@! TO.N,Net-(D1-Pad2)*
X146050000Y-113030000D03*
G04 #@! TD*
D19*
G04 #@! TO.N,Net-(D1-Pad1)*
X157886401Y-105003599D02*
X158750000Y-104140000D01*
X157561399Y-105328601D02*
X157886401Y-105003599D01*
X134620000Y-105410000D02*
X157480000Y-105410000D01*
X133350000Y-104140000D02*
X134620000Y-105410000D01*
X113030000Y-104140000D02*
X133350000Y-104140000D01*
X157561399Y-105328601D02*
X157480000Y-105410000D01*
X148590000Y-119380000D02*
X148590000Y-113030000D01*
X143510000Y-124460000D02*
X148590000Y-119380000D01*
X149860000Y-113030000D02*
X148590000Y-113030000D01*
X157480000Y-105410000D02*
X149860000Y-113030000D01*
G04 #@! TO.N,Net-(D1-Pad2)*
X146050000Y-113030000D02*
X137160000Y-113030000D01*
G04 #@! TO.N,Net-(J1-Pad1)*
X106680000Y-77470000D02*
X109626401Y-74523599D01*
X106680000Y-106760000D02*
X106680000Y-77470000D01*
X124380000Y-124460000D02*
X106680000Y-106760000D01*
X125730000Y-124460000D02*
X124380000Y-124460000D01*
X109626401Y-74523599D02*
X110490000Y-73660000D01*
G04 #@! TO.N,Net-(J1-Pad2)*
X107180011Y-79509989D02*
X109626401Y-77063599D01*
X107180011Y-106552889D02*
X107180011Y-79509989D01*
X128270000Y-123190000D02*
X123190000Y-118110000D01*
X109626401Y-77063599D02*
X110490000Y-76200000D01*
X128270000Y-124460000D02*
X128270000Y-123190000D01*
X123190000Y-118110000D02*
X118737122Y-118110000D01*
X118737122Y-118110000D02*
X107180011Y-106552889D01*
G04 #@! TO.N,Net-(J1-Pad3)*
X109626401Y-84683599D02*
X110490000Y-83820000D01*
X118944233Y-117609989D02*
X107680022Y-106345778D01*
X107680022Y-106345778D02*
X107680022Y-86629978D01*
X125229989Y-117609989D02*
X118944233Y-117609989D01*
X130810000Y-124460000D02*
X130810000Y-123190000D01*
X107680022Y-86629978D02*
X109626401Y-84683599D01*
X130810000Y-123190000D02*
X125229989Y-117609989D01*
G04 #@! TO.N,Net-(J1-Pad4)*
X133350000Y-123190000D02*
X127269978Y-117109978D01*
X127269978Y-117109978D02*
X119151344Y-117109978D01*
X108180033Y-91209967D02*
X109626401Y-89763599D01*
X108180033Y-106138667D02*
X108180033Y-91209967D01*
X133350000Y-124460000D02*
X133350000Y-123190000D01*
X119151344Y-117109978D02*
X108180033Y-106138667D01*
G04 #@! TO.N,Net-(J1-Pad5)*
X129309967Y-116609967D02*
X119358455Y-116609967D01*
X108680044Y-95789956D02*
X109626401Y-94843599D01*
X108680044Y-105931556D02*
X108680044Y-95789956D01*
X135890000Y-124460000D02*
X135890000Y-123190000D01*
X135890000Y-123190000D02*
X129309967Y-116609967D01*
X119358455Y-116609967D02*
X108680044Y-105931556D01*
X109626401Y-94843599D02*
X110490000Y-93980000D01*
G04 #@! TO.N,Net-(J1-Pad6)*
X109626401Y-99923599D02*
X110490000Y-99060000D01*
X109180055Y-105370055D02*
X109180055Y-100369945D01*
X138430000Y-124460000D02*
X138430000Y-123190000D01*
X130810000Y-115570000D02*
X119380000Y-115570000D01*
X109180055Y-100369945D02*
X109626401Y-99923599D01*
X138430000Y-123190000D02*
X130810000Y-115570000D01*
X119380000Y-115570000D02*
X109180055Y-105370055D01*
G04 #@! TO.N,Net-(J1-Pad7)*
X110490000Y-104140000D02*
X111760000Y-102870000D01*
X111760000Y-102870000D02*
X133350000Y-102870000D01*
X134620000Y-104140000D02*
X156210000Y-104140000D01*
X133350000Y-102870000D02*
X134620000Y-104140000D01*
X110490000Y-104140000D02*
X110490000Y-105410000D01*
X121920000Y-113030000D02*
X118110000Y-113030000D01*
X116840000Y-111760000D02*
X118110000Y-113030000D01*
X110490000Y-105410000D02*
X116840000Y-111760000D01*
X140970000Y-123190000D02*
X140970000Y-124460000D01*
X130810000Y-113030000D02*
X140970000Y-123190000D01*
X118110000Y-113030000D02*
X130810000Y-113030000D01*
G04 #@! TO.N,Net-(P0-Pad1)*
X110490000Y-43180000D02*
X111760000Y-41910000D01*
X134620000Y-43180000D02*
X156210000Y-43180000D01*
X133350000Y-41910000D02*
X134620000Y-43180000D01*
X111760000Y-41910000D02*
X133350000Y-41910000D01*
G04 #@! TO.N,Net-(P0-Pad2)*
X113030000Y-43180000D02*
X133350000Y-43180000D01*
X157480000Y-44450000D02*
X158750000Y-43180000D01*
X134620000Y-44450000D02*
X157480000Y-44450000D01*
X133350000Y-43180000D02*
X134620000Y-44450000D01*
G04 #@! TO.N,Net-(P0-Pad3)*
X110490000Y-45720000D02*
X111760000Y-44450000D01*
X111760000Y-44450000D02*
X133350000Y-44450000D01*
X133350000Y-44450000D02*
X134620000Y-45720000D01*
X134620000Y-45720000D02*
X156210000Y-45720000D01*
G04 #@! TO.N,Net-(P0-Pad4)*
X113030000Y-45720000D02*
X133350000Y-45720000D01*
X133350000Y-45720000D02*
X134620000Y-46990000D01*
X134620000Y-46990000D02*
X157480000Y-46990000D01*
X157480000Y-46990000D02*
X158750000Y-45720000D01*
G04 #@! TO.N,Net-(P0-Pad5)*
X110490000Y-48260000D02*
X111760000Y-46990000D01*
X111760000Y-46990000D02*
X133350000Y-46990000D01*
X134620000Y-48260000D02*
X156210000Y-48260000D01*
X133350000Y-46990000D02*
X134620000Y-48260000D01*
G04 #@! TO.N,Net-(P0-Pad6)*
X158750000Y-48260000D02*
X157480000Y-49530000D01*
X157480000Y-49530000D02*
X134620000Y-49530000D01*
X134620000Y-49530000D02*
X133350000Y-48260000D01*
X133350000Y-48260000D02*
X113030000Y-48260000D01*
G04 #@! TO.N,Net-(P0-Pad7)*
X134620000Y-50800000D02*
X156210000Y-50800000D01*
X111760000Y-49530000D02*
X133350000Y-49530000D01*
X133350000Y-49530000D02*
X134620000Y-50800000D01*
X110490000Y-50800000D02*
X111760000Y-49530000D01*
G04 #@! TO.N,Net-(P0-Pad8)*
X158750000Y-50800000D02*
X157480000Y-52070000D01*
X157480000Y-52070000D02*
X134620000Y-52070000D01*
X134620000Y-52070000D02*
X133350000Y-50800000D01*
X133350000Y-50800000D02*
X113030000Y-50800000D01*
G04 #@! TO.N,Net-(P0-Pad9)*
X133350000Y-52070000D02*
X134620000Y-53340000D01*
X134620000Y-53340000D02*
X156210000Y-53340000D01*
X111760000Y-52070000D02*
X133350000Y-52070000D01*
X110490000Y-53340000D02*
X111760000Y-52070000D01*
G04 #@! TO.N,Net-(P0-Pad10)*
X158750000Y-53340000D02*
X157480000Y-54610000D01*
X157480000Y-54610000D02*
X134620000Y-54610000D01*
X134620000Y-54610000D02*
X133350000Y-53340000D01*
X133350000Y-53340000D02*
X113030000Y-53340000D01*
G04 #@! TO.N,Net-(P0-Pad11)*
X111760000Y-54610000D02*
X133350000Y-54610000D01*
X133350000Y-54610000D02*
X134620000Y-55880000D01*
X154988686Y-55880000D02*
X156210000Y-55880000D01*
X110490000Y-55880000D02*
X111760000Y-54610000D01*
X134620000Y-55880000D02*
X154988686Y-55880000D01*
G04 #@! TO.N,Net-(P0-Pad12)*
X133350000Y-55880000D02*
X113030000Y-55880000D01*
X157480000Y-57150000D02*
X134620000Y-57150000D01*
X134620000Y-57150000D02*
X133350000Y-55880000D01*
X158750000Y-55880000D02*
X157480000Y-57150000D01*
G04 #@! TO.N,Net-(P0-Pad13)*
X110490000Y-58420000D02*
X111760000Y-57150000D01*
X111760000Y-57150000D02*
X133350000Y-57150000D01*
X133350000Y-57150000D02*
X134620000Y-58420000D01*
X134620000Y-58420000D02*
X156210000Y-58420000D01*
G04 #@! TO.N,Net-(P0-Pad14)*
X158750000Y-58420000D02*
X157480000Y-59690000D01*
X157480000Y-59690000D02*
X134620000Y-59690000D01*
X134620000Y-59690000D02*
X133350000Y-58420000D01*
X133350000Y-58420000D02*
X113030000Y-58420000D01*
G04 #@! TO.N,Net-(P0-Pad15)*
X134620000Y-60960000D02*
X156210000Y-60960000D01*
X133350000Y-59690000D02*
X134620000Y-60960000D01*
X111760000Y-59690000D02*
X133350000Y-59690000D01*
X110490000Y-60960000D02*
X111760000Y-59690000D01*
G04 #@! TO.N,Net-(P0-Pad16)*
X158750000Y-60960000D02*
X157480000Y-62230000D01*
X157480000Y-62230000D02*
X134620000Y-62230000D01*
X134620000Y-62230000D02*
X133350000Y-60960000D01*
X133350000Y-60960000D02*
X113030000Y-60960000D01*
G04 #@! TO.N,Net-(P0-Pad17)*
X110490000Y-63500000D02*
X111760000Y-62230000D01*
X111760000Y-62230000D02*
X133350000Y-62230000D01*
X133350000Y-62230000D02*
X134620000Y-63500000D01*
X134620000Y-63500000D02*
X156210000Y-63500000D01*
G04 #@! TO.N,Net-(P0-Pad18)*
X158750000Y-63500000D02*
X157480000Y-64770000D01*
X157480000Y-64770000D02*
X134620000Y-64770000D01*
X134620000Y-64770000D02*
X133350000Y-63500000D01*
X133350000Y-63500000D02*
X120650000Y-63500000D01*
X120650000Y-63500000D02*
X113030000Y-63500000D01*
G04 #@! TO.N,Net-(P0-Pad19)*
X110490000Y-66040000D02*
X111760000Y-64770000D01*
X111760000Y-64770000D02*
X133350000Y-64770000D01*
X133350000Y-64770000D02*
X134620000Y-66040000D01*
X134620000Y-66040000D02*
X142240000Y-66040000D01*
X142240000Y-66040000D02*
X156210000Y-66040000D01*
G04 #@! TO.N,Net-(P0-Pad20)*
X158750000Y-66040000D02*
X157480000Y-67310000D01*
X157480000Y-67310000D02*
X134620000Y-67310000D01*
X134620000Y-67310000D02*
X133350000Y-66040000D01*
X133350000Y-66040000D02*
X113030000Y-66040000D01*
G04 #@! TO.N,Net-(P0-Pad21)*
X110490000Y-68580000D02*
X111760000Y-67310000D01*
X111760000Y-67310000D02*
X133350000Y-67310000D01*
X134620000Y-68580000D02*
X156210000Y-68580000D01*
X133350000Y-67310000D02*
X134620000Y-68580000D01*
G04 #@! TO.N,Net-(P0-Pad22)*
X157480000Y-69850000D02*
X134620000Y-69850000D01*
X158750000Y-68580000D02*
X157480000Y-69850000D01*
X134620000Y-69850000D02*
X133350000Y-68580000D01*
X133350000Y-68580000D02*
X113030000Y-68580000D01*
G04 #@! TO.N,Net-(P0-Pad23)*
X110490000Y-71120000D02*
X111760000Y-69850000D01*
X111760000Y-69850000D02*
X133350000Y-69850000D01*
X134620000Y-71120000D02*
X156210000Y-71120000D01*
X133350000Y-69850000D02*
X134620000Y-71120000D01*
G04 #@! TO.N,Net-(P0-Pad24)*
X158750000Y-71120000D02*
X157480000Y-72390000D01*
X157480000Y-72390000D02*
X134620000Y-72390000D01*
X134620000Y-72390000D02*
X133350000Y-71120000D01*
X133350000Y-71120000D02*
X113030000Y-71120000D01*
G04 #@! TO.N,Net-(P0-Pad26)*
X157886401Y-74523599D02*
X158750000Y-73660000D01*
X113030000Y-73660000D02*
X133350000Y-73660000D01*
X134620000Y-74930000D02*
X157480000Y-74930000D01*
X133350000Y-73660000D02*
X134620000Y-74930000D01*
X157480000Y-74930000D02*
X157886401Y-74523599D01*
G04 #@! TO.N,Net-(P0-Pad28)*
X157886401Y-77063599D02*
X158750000Y-76200000D01*
X113030000Y-76200000D02*
X133350000Y-76200000D01*
X133350000Y-76200000D02*
X134620000Y-77470000D01*
X134620000Y-77470000D02*
X157480000Y-77470000D01*
X157480000Y-77470000D02*
X157886401Y-77063599D01*
G04 #@! TO.N,Net-(P0-Pad29)*
X110490000Y-78740000D02*
X111760000Y-77470000D01*
X111760000Y-77470000D02*
X133350000Y-77470000D01*
X134620000Y-78740000D02*
X156210000Y-78740000D01*
X133350000Y-77470000D02*
X134620000Y-78740000D01*
G04 #@! TO.N,Net-(P0-Pad30)*
X158750000Y-78740000D02*
X157480000Y-80010000D01*
X157480000Y-80010000D02*
X134620000Y-80010000D01*
X134620000Y-80010000D02*
X133350000Y-78740000D01*
X133350000Y-78740000D02*
X113030000Y-78740000D01*
G04 #@! TO.N,Net-(P0-Pad31)*
X110490000Y-81280000D02*
X111760000Y-80010000D01*
X111760000Y-80010000D02*
X133350000Y-80010000D01*
X133350000Y-80010000D02*
X134620000Y-81280000D01*
X134620000Y-81280000D02*
X156210000Y-81280000D01*
G04 #@! TO.N,Net-(P0-Pad32)*
X113030000Y-81280000D02*
X133350000Y-81280000D01*
X134620000Y-82550000D02*
X157480000Y-82550000D01*
X157886401Y-82143599D02*
X158750000Y-81280000D01*
X133350000Y-81280000D02*
X134620000Y-82550000D01*
X157480000Y-82550000D02*
X157886401Y-82143599D01*
G04 #@! TO.N,Net-(P0-Pad34)*
X158750000Y-83820000D02*
X157480000Y-85090000D01*
X157480000Y-85090000D02*
X134620000Y-85090000D01*
X134620000Y-85090000D02*
X133350000Y-83820000D01*
X133350000Y-83820000D02*
X113030000Y-83820000D01*
G04 #@! TO.N,Net-(P0-Pad35)*
X110490000Y-86360000D02*
X111760000Y-85090000D01*
X111760000Y-85090000D02*
X133350000Y-85090000D01*
X134620000Y-86360000D02*
X156210000Y-86360000D01*
X133350000Y-85090000D02*
X134620000Y-86360000D01*
G04 #@! TO.N,Net-(P0-Pad36)*
X158750000Y-86360000D02*
X157480000Y-87630000D01*
X157480000Y-87630000D02*
X134620000Y-87630000D01*
X134620000Y-87630000D02*
X133350000Y-86360000D01*
X133350000Y-86360000D02*
X113030000Y-86360000D01*
G04 #@! TO.N,Net-(P0-Pad38)*
X157886401Y-89763599D02*
X158750000Y-88900000D01*
X113030000Y-88900000D02*
X133350000Y-88900000D01*
X134620000Y-90170000D02*
X157480000Y-90170000D01*
X133350000Y-88900000D02*
X134620000Y-90170000D01*
X157480000Y-90170000D02*
X157886401Y-89763599D01*
G04 #@! TO.N,Net-(P0-Pad39)*
X110490000Y-91440000D02*
X111760000Y-90170000D01*
X111760000Y-90170000D02*
X133350000Y-90170000D01*
X134620000Y-91440000D02*
X156210000Y-91440000D01*
X133350000Y-90170000D02*
X134620000Y-91440000D01*
G04 #@! TO.N,Net-(P0-Pad40)*
X158750000Y-91440000D02*
X157480000Y-92710000D01*
X157480000Y-92710000D02*
X134620000Y-92710000D01*
X134620000Y-92710000D02*
X133350000Y-91440000D01*
X133350000Y-91440000D02*
X113030000Y-91440000D01*
G04 #@! TO.N,Net-(P0-Pad42)*
X157886401Y-94843599D02*
X158750000Y-93980000D01*
X113030000Y-93980000D02*
X133350000Y-93980000D01*
X133350000Y-93980000D02*
X134620000Y-95250000D01*
X134620000Y-95250000D02*
X157480000Y-95250000D01*
X157480000Y-95250000D02*
X157886401Y-94843599D01*
G04 #@! TO.N,Net-(P0-Pad43)*
X110490000Y-96520000D02*
X111760000Y-95250000D01*
X111760000Y-95250000D02*
X133350000Y-95250000D01*
X133350000Y-95250000D02*
X134620000Y-96520000D01*
X134620000Y-96520000D02*
X156210000Y-96520000D01*
G04 #@! TO.N,Net-(P0-Pad44)*
X158750000Y-96520000D02*
X157480000Y-97790000D01*
X157480000Y-97790000D02*
X134620000Y-97790000D01*
X134620000Y-97790000D02*
X133350000Y-96520000D01*
X133350000Y-96520000D02*
X113030000Y-96520000D01*
G04 #@! TO.N,Net-(P0-Pad46)*
X157886401Y-99923599D02*
X158750000Y-99060000D01*
X113030000Y-99060000D02*
X133350000Y-99060000D01*
X133350000Y-99060000D02*
X134620000Y-100330000D01*
X134620000Y-100330000D02*
X157480000Y-100330000D01*
X157480000Y-100330000D02*
X157886401Y-99923599D01*
G04 #@! TO.N,Net-(P0-Pad47)*
X110490000Y-101600000D02*
X111760000Y-100330000D01*
X111760000Y-100330000D02*
X133350000Y-100330000D01*
X134620000Y-101600000D02*
X156210000Y-101600000D01*
X133350000Y-100330000D02*
X134620000Y-101600000D01*
G04 #@! TO.N,Net-(P0-Pad48)*
X158750000Y-101600000D02*
X157480000Y-102870000D01*
X157480000Y-102870000D02*
X134620000Y-102870000D01*
X134620000Y-102870000D02*
X133350000Y-101600000D01*
X133350000Y-101600000D02*
X113030000Y-101600000D01*
G04 #@! TD*
M02*
