M48
;DRILL file {KiCad 5.0.1+dfsg1-3~bpo9+1} date Sat 24 Nov 2018 09:55:34 PM MST
;FORMAT={-:-/ absolute / inch / decimal}
FMAT,2
INCH,TZ
T1C0.0315
T2C0.0354
T3C0.0400
T4C0.0433
%
G90
G05
M72
T1
X4.8Y-4.45
X5.4Y-4.45
T2
X5.75Y-4.45
X5.85Y-4.45
T3
X4.35Y-1.7
X4.35Y-1.8
X4.35Y-1.9
X4.35Y-2.
X4.35Y-2.1
X4.35Y-2.2
X4.35Y-2.3
X4.35Y-2.4
X4.35Y-2.5
X4.35Y-2.6
X4.35Y-2.7
X4.35Y-2.8
X4.35Y-2.9
X4.35Y-3.
X4.35Y-3.1
X4.35Y-3.2
X4.35Y-3.3
X4.35Y-3.4
X4.35Y-3.5
X4.35Y-3.6
X4.35Y-3.7
X4.35Y-3.8
X4.35Y-3.9
X4.35Y-4.
X4.35Y-4.1
X4.45Y-1.7
X4.45Y-1.8
X4.45Y-1.9
X4.45Y-2.
X4.45Y-2.1
X4.45Y-2.2
X4.45Y-2.3
X4.45Y-2.4
X4.45Y-2.5
X4.45Y-2.6
X4.45Y-2.7
X4.45Y-2.8
X4.45Y-2.9
X4.45Y-3.
X4.45Y-3.1
X4.45Y-3.2
X4.45Y-3.3
X4.45Y-3.4
X4.45Y-3.5
X4.45Y-3.6
X4.45Y-3.7
X4.45Y-3.8
X4.45Y-3.9
X4.45Y-4.
X4.45Y-4.1
X6.15Y-1.7
X6.15Y-1.8
X6.15Y-1.9
X6.15Y-2.
X6.15Y-2.1
X6.15Y-2.2
X6.15Y-2.3
X6.15Y-2.4
X6.15Y-2.5
X6.15Y-2.6
X6.15Y-2.7
X6.15Y-2.8
X6.15Y-2.9
X6.15Y-3.
X6.15Y-3.1
X6.15Y-3.2
X6.15Y-3.3
X6.15Y-3.4
X6.15Y-3.5
X6.15Y-3.6
X6.15Y-3.7
X6.15Y-3.8
X6.15Y-3.9
X6.15Y-4.
X6.15Y-4.1
X6.25Y-1.7
X6.25Y-1.8
X6.25Y-1.9
X6.25Y-2.
X6.25Y-2.1
X6.25Y-2.2
X6.25Y-2.3
X6.25Y-2.4
X6.25Y-2.5
X6.25Y-2.6
X6.25Y-2.7
X6.25Y-2.8
X6.25Y-2.9
X6.25Y-3.
X6.25Y-3.1
X6.25Y-3.2
X6.25Y-3.3
X6.25Y-3.4
X6.25Y-3.5
X6.25Y-3.6
X6.25Y-3.7
X6.25Y-3.8
X6.25Y-3.9
X6.25Y-4.
X6.25Y-4.1
T4
X4.95Y-4.9
X5.05Y-4.9
X5.15Y-4.9
X5.25Y-4.9
X5.35Y-4.9
X5.45Y-4.9
X5.55Y-4.9
X5.65Y-4.9
T0
M30
