M48
;DRILL file {KiCad 5.0.2+dfsg1-1} date Sun 07 Apr 2019 09:18:15 PM MDT
;FORMAT={-:-/ absolute / inch / decimal}
FMAT,2
INCH,TZ
T1C0.0354
T2C0.0380
T3C0.0433
T4C0.0472
T5C0.1260
%
G90
G05
T1
X1.9Y0.75
X2.Y0.75
T2
X0.5Y3.3
X0.5Y3.2
X0.5Y3.1
X0.5Y3.
X0.5Y2.9
X0.5Y2.8
X0.5Y2.7
X0.5Y2.6
X0.5Y2.5
X0.5Y2.4
X0.5Y2.3
X0.5Y2.2
X0.5Y2.1
X0.5Y2.
X0.5Y1.9
X0.5Y1.8
X0.5Y1.7
X0.5Y1.6
X0.5Y1.5
X0.5Y1.4
X0.5Y1.3
X0.5Y1.2
X0.5Y1.1
X0.5Y1.
X0.5Y0.9
X0.6Y3.3
X0.6Y3.2
X0.6Y3.1
X0.6Y3.
X0.6Y2.9
X0.6Y2.8
X0.6Y2.7
X0.6Y2.6
X0.6Y2.5
X0.6Y2.4
X0.6Y2.3
X0.6Y2.2
X0.6Y2.1
X0.6Y2.
X0.6Y1.9
X0.6Y1.8
X0.6Y1.7
X0.6Y1.6
X0.6Y1.5
X0.6Y1.4
X0.6Y1.3
X0.6Y1.2
X0.6Y1.1
X0.6Y1.
X0.6Y0.9
X2.3Y3.3
X2.3Y3.2
X2.3Y3.1
X2.3Y3.
X2.3Y2.9
X2.3Y2.8
X2.3Y2.7
X2.3Y2.6
X2.3Y2.5
X2.3Y2.4
X2.3Y2.3
X2.3Y2.2
X2.3Y2.1
X2.3Y2.
X2.3Y1.9
X2.3Y1.8
X2.3Y1.7
X2.3Y1.6
X2.3Y1.5
X2.3Y1.4
X2.3Y1.3
X2.3Y1.2
X2.3Y1.1
X2.3Y1.
X2.3Y0.9
X2.4Y3.3
X2.4Y3.2
X2.4Y3.1
X2.4Y3.
X2.4Y2.9
X2.4Y2.8
X2.4Y2.7
X2.4Y2.6
X2.4Y2.5
X2.4Y2.4
X2.4Y2.3
X2.4Y2.2
X2.4Y2.1
X2.4Y2.
X2.4Y1.9
X2.4Y1.8
X2.4Y1.7
X2.4Y1.6
X2.4Y1.5
X2.4Y1.4
X2.4Y1.3
X2.4Y1.2
X2.4Y1.1
X2.4Y1.
X2.4Y0.9
T3
X1.1Y0.4
X1.2Y0.4
X1.3Y0.4
X1.4Y0.4
X1.5Y0.4
X1.6Y0.4
X1.7Y0.4
X1.8Y0.4
T4
X0.8575Y0.75
X1.6575Y0.75
T5
X0.2Y3.6
X2.7Y0.2
X2.7Y3.6
X0.2Y0.2
T0
M30
